<svg version="1.1" xmlns="http://www.w3.org/2000/svg" xmlns:xlink="http://www.w3.org/1999/xlink"
xmlns:i="http://ns.adobe.com/AdobeIllustrator/10.0/" height="100%" width="100%" x="0px" y="0px"
viewBox="50 50 540 380" xml:space="preserve" preserveAspectRatio="xMidYMid meet" class=""><rect x="0px" y="0px" width="100%" height="100%" fill="transparent"></rect><g class="logo-container-box logoContainerBox" transform="scale(0.75) translate(106.66666666666669,80.00001525878906)"><g class="containerBody" transform="scale(1.074676744845975) translate(-22.23604303835282,55.876182748090855)"><g class="sampleIconBox" transform="scale(1) translate(-0.00000762939453125,-0.0000015258789005656581)"><g class="iconFrame" transform="scale(1) translate(220.0500032901764,31.89999332427979)" fill="#0ca8e5"><g>
	<path class="st0" d="M189.9,41.6c-0.3-16.4,0-32.3,0-32.3H56.8L9.4,10l0.4,110.6l0.2,69h87.6c0,0,31-0.5,32.9-0.7
		c1.8-0.2,16.3-1.1,16.3-1.1l-1.3-0.6l-72.8,0.2l-60.4-0.1V12.5h175c0,0-0.7,43.2,0,56.8h0.8C188.1,69.3,190.2,58,189.9,41.6z"></path>
	<path class="st0" d="M123.3,195.3H3.4L3.5,158l0.1-82.5L3.1,31.5c0,0-0.1-4.7-0.9-4.8c-0.8-0.1-1,3.9-1,3.9l-0.2,88.3l0.5,37.6
		l-0.5,42h158c0,0,24.9,0,28.1-0.5c3.2-0.5,9.1-1.4,9.1-1.4v-0.5c0,0-6-0.7-9-1S123.3,195.3,123.3,195.3z"></path>
	<polygon class="st0" points="3.3,23.1 3.4,4.5 26.5,3.9 26.5,2.9 1.5,2.4 2.2,23.1 	"></polygon>
	<path class="st0" d="M100.1,2.4c0,0-29.2-1-32.4-0.8c-3.2,0.2-17.1,1.1-17.1,1.1L48.7,4C49,3.8,99,3.4,100.1,3.2V2.4z"></path>
	<polygon class="st0" points="196.3,46.5 197.4,51.6 197.9,51.6 198.9,40.1 198.4,1.6 130.5,2.4 128.7,3.3 195.6,4 	"></polygon>
	<path class="st0" d="M162.4,187.6l-1.3,1.1l27.6,0.6v-1.1l1.2-33.4c0,0,0.1-55.7,0-57.9c-0.1-2.3-1-15.2-2.2-13.4l-0.2,40.2
		l0.3,64.4l-6.8-0.6L162.4,187.6z"></path>
	<path class="st0" d="M196.3,91l0.9,104.1l1,2.6h0.7v-3.1v-87.5C198.9,107.2,198.4,87.3,196.3,91z"></path>
</g></g><g class="sampleIcons_1" transform="scale(1.0264094962925467) translate(266.1705693359375,107.58538999938966)" fill="#0ca8e5"><path d="M35.03,35.148c-7.732-3.146-11.661-3.487-15.821-3.848c-4.101-0.354-8.347-0.729-16.382-3.95  c-0.597,0.901-1.09,2.651-1.487,4.772c8.261,2.153,12.443,1.988,16.477,1.821c4.081-0.168,8.298-0.341,16.548,1.847  c2.792,0.741,4.966,1.47,6.695,2.176C39.524,37.117,37.569,36.181,35.03,35.148z"></path><path d="M34.048,37.982c-8.068-2.141-12.008-1.98-16.182-1.808c-4.11,0.17-8.367,0.338-16.739-1.835  c-0.27,1.654-0.488,3.445-0.661,5.174c8.167,0.969,12.216,0.268,16.122-0.416c4.021-0.703,8.179-1.43,16.647-0.348  c3.312,0.424,5.807,0.94,7.732,1.5C39.258,39.53,37.023,38.771,34.048,37.982z"></path><path d="M16.801,41.31c-3.991,0.697-8.125,1.412-16.451,0.43C0.18,43.635,0.063,45.386,0,46.685  c8.365-0.059,12.312-1.281,16.133-2.465c3.901-1.208,7.934-2.457,16.469-2.457c2.886,0,5.174,0.146,7.025,0.387  c-1.702-0.43-3.83-0.831-6.547-1.178C24.8,39.912,20.914,40.591,16.801,41.31z"></path><path d="M79.611,33.969c4.043,0.165,8.232,0.333,16.533-1.835c-0.41-2.307-0.904-4.096-1.479-4.783  c-8.078,3.246-12.334,3.619-16.447,3.975c-4.16,0.361-8.09,0.7-15.822,3.849c-2.539,1.034-4.496,1.97-6.031,2.821  c1.729-0.707,3.904-1.438,6.699-2.178C71.312,33.628,75.531,33.802,79.611,33.969z"></path><path d="M94.041,25.278L85.287,0c-6.336,2.515-9.715,2.807-12.984,3.09c-3.342,0.289-6.498,0.562-12.707,3.089  c-8.611,3.506-9.078,5.696-9.328,6.873c-0.121,0.565-0.264,1.197-1.038,1.609v28.725c0.004-0.006,0.012-0.012,0.017-0.02  c0.036-0.052,0.068-0.115,0.1-0.184c0.065-0.158,0.114-0.348,0.174-0.625c0.39-1.831,1.042-4.896,12.414-9.523  c7.904-3.22,12.111-3.583,16.18-3.936C82.107,28.753,86.234,28.397,94.041,25.278z"></path><path d="M80.837,39.123c3.91,0.684,7.961,1.383,16.141,0.414c-0.172-1.79-0.383-3.569-0.633-5.184  c-8.398,2.184-12.664,2.017-16.785,1.846c-4.174-0.171-8.113-0.332-16.182,1.809c-2.975,0.79-5.209,1.549-6.922,2.27  c1.926-0.56,4.422-1.076,7.734-1.5C72.656,37.693,76.818,38.42,80.837,39.123z"></path><path d="M81.294,44.247c3.82,1.183,7.768,2.406,16.133,2.466c-0.072-1.51-0.188-3.213-0.336-4.948  c-8.334,0.985-12.473,0.269-16.465-0.429c-4.113-0.719-7.998-1.397-16.279-0.338c-2.715,0.348-4.844,0.75-6.545,1.178  c1.85-0.238,4.137-0.387,7.023-0.387C73.361,41.789,77.394,43.039,81.294,44.247z"></path><path d="M47.907,42.533c0.033,0.154,0.061,0.279,0.091,0.394V14.662c-0.774-0.412-0.917-1.044-1.037-1.609  c-0.251-1.177-0.717-3.367-9.329-6.873c-6.209-2.527-9.365-2.8-12.706-3.089c-3.27-0.283-6.647-0.576-12.981-3.089L3.382,25.25  c7.81,3.121,11.938,3.479,15.933,3.824c4.068,0.353,8.274,0.717,16.179,3.934C46.866,37.636,47.518,40.702,47.907,42.533z"></path></g></g><g class="sampleTexts_1" transform="scale(1) translate(-0.00000762939453125,-0.00003662109375568434)"><g class="logo--name svgLogoName_1 logoNameBox" transform="scale(1) translate(109.06500482559204,300.7199989318848)" fill="#0ca8e5" stroke="#0ca8e5" stroke-width="3"><path d="M52.77-50.41L39.45 0L37.09 0L27.28-37.93L27.14-39.90L26.93-37.93L17.19 0L14.84 0L1.44-50.41L5.98-50.41L15.86-12.09L16.00-10.23L16.14-12.09L25.84-50.41L28.37-50.41L38.07-12.09L38.21-10.23L38.39-12.09L48.23-50.41L52.77-50.41ZM81.56-9.88L81.56-9.88L81.56-9.88Q81.56-7.70 80.74-5.77L80.74-5.77L80.74-5.77Q79.91-3.83 78.47-2.39L78.47-2.39L78.47-2.39Q77.03-0.95 75.09-0.12L75.09-0.12L75.09-0.12Q73.16 0.70 70.98 0.70L70.98 0.70L68.10 0.70L68.10 0.70Q65.92 0.70 63.98-0.12L63.98-0.12L63.98-0.12Q62.05-0.95 60.61-2.39L60.61-2.39L60.61-2.39Q59.17-3.83 58.34-5.77L58.34-5.77L58.34-5.77Q57.52-7.70 57.52-9.88L57.52-9.88L57.52-26.12L57.52-26.12Q57.52-28.30 58.34-30.23L58.34-30.23L58.34-30.23Q59.17-32.17 60.61-33.61L60.61-33.61L60.61-33.61Q62.05-35.05 63.98-35.88L63.98-35.88L63.98-35.88Q65.92-36.70 68.10-36.70L68.10-36.70L70.98-36.70L70.98-36.70Q73.16-36.70 75.09-35.88L75.09-35.88L75.09-35.88Q77.03-35.05 78.47-33.61L78.47-33.61L78.47-33.61Q79.91-32.17 80.74-30.23L80.74-30.23L80.74-30.23Q81.56-28.30 81.56-26.12L81.56-26.12L81.56-17.65L61.84-17.65L61.84-9.63L61.84-9.63Q61.84-8.33 62.33-7.19L62.33-7.19L62.33-7.19Q62.82-6.05 63.67-5.20L63.67-5.20L63.67-5.20Q64.51-4.36 65.65-3.87L65.65-3.87L65.65-3.87Q66.80-3.38 68.10-3.38L68.10-3.38L70.98-3.38L70.98-3.38Q72.28-3.38 73.42-3.87L73.42-3.87L73.42-3.87Q74.57-4.36 75.41-5.20L75.41-5.20L75.41-5.20Q76.25-6.05 76.75-7.19L76.75-7.19L76.75-7.19Q77.24-8.33 77.24-9.63L77.24-9.63L77.24-12.02L81.56-11.32L81.56-9.88ZM77.24-21.02L77.24-26.37L77.24-26.37Q77.24-27.67 76.75-28.81L76.75-28.81L76.75-28.81Q76.25-29.95 75.41-30.80L75.41-30.80L75.41-30.80Q74.57-31.64 73.42-32.13L73.42-32.13L73.42-32.13Q72.28-32.63 70.98-32.63L70.98-32.63L68.10-32.63L68.10-32.63Q66.80-32.63 65.65-32.13L65.65-32.13L65.65-32.13Q64.51-31.64 63.67-30.80L63.67-30.80L63.67-30.80Q62.82-29.95 62.33-28.81L62.33-28.81L62.33-28.81Q61.84-27.67 61.84-26.37L61.84-26.37L61.84-21.02L77.24-21.02ZM135.84-11.67L135.84-11.67L135.84-11.67Q135.84-9.11 134.88-6.86L134.88-6.86L134.88-6.86Q133.91-4.61 132.22-2.92L132.22-2.92L132.22-2.92Q130.54-1.23 128.29-0.26L128.29-0.26L128.29-0.26Q126.04 0.70 123.47 0.70L123.47 0.70L119.88 0.70L119.88 0.70Q117.32 0.70 115.05-0.26L115.05-0.26L115.05-0.26Q112.78-1.23 111.09-2.92L111.09-2.92L111.09-2.92Q109.41-4.61 108.44-6.86L108.44-6.86L108.44-6.86Q107.47-9.11 107.47-11.67L107.47-11.67L107.47-38.74L107.47-38.74Q107.47-41.31 108.44-43.56L108.44-43.56L108.44-43.56Q109.41-45.81 111.09-47.50L111.09-47.50L111.09-47.50Q112.78-49.18 115.05-50.15L115.05-50.15L115.05-50.15Q117.32-51.12 119.88-51.12L119.88-51.12L123.47-51.12L123.47-51.12Q126.04-51.12 128.29-50.15L128.29-50.15L128.29-50.15Q130.54-49.18 132.22-47.50L132.22-47.50L132.22-47.50Q133.91-45.81 134.88-43.56L134.88-43.56L134.88-43.56Q135.84-41.31 135.84-38.74L135.84-38.74L135.84-36.70L131.31-36L131.31-38.74L131.31-38.74Q131.31-40.43 130.68-41.89L130.68-41.89L130.68-41.89Q130.04-43.35 128.95-44.44L128.95-44.44L128.95-44.44Q127.86-45.53 126.40-46.16L126.40-46.16L126.40-46.16Q124.95-46.79 123.26-46.79L123.26-46.79L120.09-46.79L120.09-46.79Q118.41-46.79 116.95-46.16L116.95-46.16L116.95-46.16Q115.49-45.53 114.38-44.44L114.38-44.44L114.38-44.44Q113.27-43.35 112.64-41.89L112.64-41.89L112.64-41.89Q112.01-40.43 112.01-38.74L112.01-38.74L112.01-11.67L112.01-11.67Q112.01-9.98 112.64-8.53L112.64-8.53L112.64-8.53Q113.27-7.07 114.38-5.96L114.38-5.96L114.38-5.96Q115.49-4.85 116.95-4.22L116.95-4.22L116.95-4.22Q118.41-3.59 120.09-3.59L120.09-3.59L123.26-3.59L123.26-3.59Q124.95-3.59 126.40-4.22L126.40-4.22L126.40-4.22Q127.86-4.85 128.95-5.96L128.95-5.96L128.95-5.96Q130.04-7.07 130.68-8.53L130.68-8.53L130.68-8.53Q131.31-9.98 131.31-11.67L131.31-11.67L131.31-14.41L135.84-13.68L135.84-11.67ZM168.54 0L167.10 0L164.71-3.59L164.71-3.59Q163.23-1.65 161.02-0.47L161.02-0.47L161.02-0.47Q158.80 0.70 156.16 0.70L156.16 0.70L155.07 0.70L155.07 0.70Q152.89 0.70 150.96-0.12L150.96-0.12L150.96-0.12Q149.03-0.95 147.59-2.39L147.59-2.39L147.59-2.39Q146.14-3.83 145.32-5.77L145.32-5.77L145.32-5.77Q144.49-7.70 144.49-9.88L144.49-9.88L144.49-10.23L144.49-10.23Q144.49-12.41 145.32-14.34L145.32-14.34L145.32-14.34Q146.14-16.28 147.59-17.72L147.59-17.72L147.59-17.72Q149.03-19.16 150.96-19.99L150.96-19.99L150.96-19.99Q152.89-20.81 155.07-20.81L155.07-20.81L164.21-20.81L164.21-26.37L164.21-26.37Q164.21-27.67 163.72-28.81L163.72-28.81L163.72-28.81Q163.23-29.95 162.39-30.80L162.39-30.80L162.39-30.80Q161.54-31.64 160.40-32.13L160.40-32.13L160.40-32.13Q159.26-32.63 157.96-32.63L157.96-32.63L155.43-32.63L155.43-32.63Q154.13-32.63 152.98-32.13L152.98-32.13L152.98-32.13Q151.84-31.64 151.00-30.80L151.00-30.80L151.00-30.80Q150.15-29.95 149.66-28.81L149.66-28.81L149.66-28.81Q149.17-27.67 149.17-26.37L149.17-26.37L149.17-25.07L144.84-25.77L144.84-26.12L144.84-26.12Q144.84-28.30 145.67-30.23L145.67-30.23L145.67-30.23Q146.50-32.17 147.94-33.61L147.94-33.61L147.94-33.61Q149.38-35.05 151.31-35.88L151.31-35.88L151.31-35.88Q153.25-36.70 155.43-36.70L155.43-36.70L157.96-36.70L157.96-36.70Q160.14-36.70 162.07-35.88L162.07-35.88L162.07-35.88Q164.00-35.05 165.45-33.61L165.45-33.61L165.45-33.61Q166.89-32.17 167.71-30.23L167.71-30.23L167.71-30.23Q168.54-28.30 168.54-26.12L168.54-26.12L168.54 0ZM164.21-9.63L164.21-17.44L155.07-17.44L155.07-17.44Q153.77-17.44 152.63-16.95L152.63-16.95L152.63-16.95Q151.49-16.45 150.64-15.59L150.64-15.59L150.64-15.59Q149.80-14.73 149.31-13.59L149.31-13.59L149.31-13.59Q148.82-12.45 148.82-11.14L148.82-11.14L148.82-9.63L148.82-9.63Q148.82-8.33 149.31-7.19L149.31-7.19L149.31-7.19Q149.80-6.05 150.64-5.20L150.64-5.20L150.64-5.20Q151.49-4.36 152.63-3.87L152.63-3.87L152.63-3.87Q153.77-3.38 155.07-3.38L155.07-3.38L157.96-3.38L157.96-3.38Q159.26-3.38 160.40-3.87L160.40-3.87L160.40-3.87Q161.54-4.36 162.39-5.20L162.39-5.20L162.39-5.20Q163.23-6.05 163.72-7.19L163.72-7.19L163.72-7.19Q164.21-8.33 164.21-9.63L164.21-9.63ZM201.23 0L196.91 0L196.91-26.37L196.91-26.37Q196.91-27.67 196.42-28.81L196.42-28.81L196.42-28.81Q195.93-29.95 195.08-30.80L195.08-30.80L195.08-30.80Q194.24-31.64 193.10-32.13L193.10-32.13L193.10-32.13Q191.95-32.63 190.65-32.63L190.65-32.63L187.77-32.63L187.77-32.63Q186.47-32.63 185.33-32.13L185.33-32.13L185.33-32.13Q184.18-31.64 183.34-30.80L183.34-30.80L183.34-30.80Q182.50-29.95 182.00-28.81L182.00-28.81L182.00-28.81Q181.51-27.67 181.51-26.37L181.51-26.37L181.51 0L177.19 0L177.19-36L178.63-36L180.98-32.34L180.98-32.34Q182.46-34.35 184.69-35.53L184.69-35.53L184.69-35.53Q186.93-36.70 189.56-36.70L189.56-36.70L190.65-36.70L190.65-36.70Q192.83-36.70 194.77-35.88L194.77-35.88L194.77-35.88Q196.70-35.05 198.14-33.61L198.14-33.61L198.14-33.61Q199.58-32.17 200.41-30.23L200.41-30.23L200.41-30.23Q201.23-28.30 201.23-26.12L201.23-26.12L201.23 0ZM256.82 0L251.58 0L237.90-21.52L231.68-21.52L231.68 0L227.14 0L227.14-50.41L243.14-50.41L243.14-50.41Q245.71-50.41 247.96-49.45L247.96-49.45L247.96-49.45Q250.21-48.48 251.89-46.79L251.89-46.79L251.89-46.79Q253.58-45.11 254.55-42.84L254.55-42.84L254.55-42.84Q255.52-40.57 255.52-38.00L255.52-38.00L255.52-33.93L255.52-33.93Q255.52-31.36 254.55-29.09L254.55-29.09L254.55-29.09Q253.58-26.82 251.89-25.14L251.89-25.14L251.89-25.14Q250.21-23.45 247.96-22.48L247.96-22.48L247.96-22.48Q245.71-21.52 243.14-21.52L243.14-21.52L256.82 0ZM250.98-33.93L250.98-38.00L250.98-38.00Q250.98-39.69 250.35-41.15L250.35-41.15L250.35-41.15Q249.71-42.61 248.63-43.72L248.63-43.72L248.63-43.72Q247.54-44.82 246.08-45.46L246.08-45.46L246.08-45.46Q244.62-46.09 242.93-46.09L242.93-46.09L231.68-46.09L231.68-25.84L242.93-25.84L242.93-25.84Q244.62-25.84 246.08-26.47L246.08-26.47L246.08-26.47Q247.54-27.11 248.63-28.21L248.63-28.21L248.63-28.21Q249.71-29.32 250.35-30.78L250.35-30.78L250.35-30.78Q250.98-32.24 250.98-33.93L250.98-33.93ZM288.07-9.88L288.07-9.88L288.07-9.88Q288.07-7.70 287.24-5.77L287.24-5.77L287.24-5.77Q286.42-3.83 284.98-2.39L284.98-2.39L284.98-2.39Q283.54-0.95 281.60-0.12L281.60-0.12L281.60-0.12Q279.67 0.70 277.49 0.70L277.49 0.70L274.61 0.70L274.61 0.70Q272.43 0.70 270.49-0.12L270.49-0.12L270.49-0.12Q268.56-0.95 267.12-2.39L267.12-2.39L267.12-2.39Q265.68-3.83 264.85-5.77L264.85-5.77L264.85-5.77Q264.02-7.70 264.02-9.88L264.02-9.88L264.02-26.12L264.02-26.12Q264.02-28.30 264.85-30.23L264.85-30.23L264.85-30.23Q265.68-32.17 267.12-33.61L267.12-33.61L267.12-33.61Q268.56-35.05 270.49-35.88L270.49-35.88L270.49-35.88Q272.43-36.70 274.61-36.70L274.61-36.70L277.49-36.70L277.49-36.70Q279.67-36.70 281.60-35.88L281.60-35.88L281.60-35.88Q283.54-35.05 284.98-33.61L284.98-33.61L284.98-33.61Q286.42-32.17 287.24-30.23L287.24-30.23L287.24-30.23Q288.07-28.30 288.07-26.12L288.07-26.12L288.07-17.65L268.35-17.65L268.35-9.63L268.35-9.63Q268.35-8.33 268.84-7.19L268.84-7.19L268.84-7.19Q269.33-6.05 270.18-5.20L270.18-5.20L270.18-5.20Q271.02-4.36 272.16-3.87L272.16-3.87L272.16-3.87Q273.30-3.38 274.61-3.38L274.61-3.38L277.49-3.38L277.49-3.38Q278.79-3.38 279.93-3.87L279.93-3.87L279.93-3.87Q281.07-4.36 281.92-5.20L281.92-5.20L281.92-5.20Q282.76-6.05 283.25-7.19L283.25-7.19L283.25-7.19Q283.75-8.33 283.75-9.63L283.75-9.63L283.75-12.02L288.07-11.32L288.07-9.88ZM283.75-21.02L283.75-26.37L283.75-26.37Q283.75-27.67 283.25-28.81L283.25-28.81L283.25-28.81Q282.76-29.95 281.92-30.80L281.92-30.80L281.92-30.80Q281.07-31.64 279.93-32.13L279.93-32.13L279.93-32.13Q278.79-32.63 277.49-32.63L277.49-32.63L274.61-32.63L274.61-32.63Q273.30-32.63 272.16-32.13L272.16-32.13L272.16-32.13Q271.02-31.64 270.18-30.80L270.18-30.80L270.18-30.80Q269.33-29.95 268.84-28.81L268.84-28.81L268.84-28.81Q268.35-27.67 268.35-26.37L268.35-26.37L268.35-21.02L283.75-21.02ZM320.77 0L319.32 0L316.93-3.59L316.93-3.59Q315.46-1.65 313.24-0.47L313.24-0.47L313.24-0.47Q311.03 0.70 308.39 0.70L308.39 0.70L307.30 0.70L307.30 0.70Q305.12 0.70 303.19-0.12L303.19-0.12L303.19-0.12Q301.25-0.95 299.81-2.39L299.81-2.39L299.81-2.39Q298.37-3.83 297.54-5.77L297.54-5.77L297.54-5.77Q296.72-7.70 296.72-9.88L296.72-9.88L296.72-10.23L296.72-10.23Q296.72-12.41 297.54-14.34L297.54-14.34L297.54-14.34Q298.37-16.28 299.81-17.72L299.81-17.72L299.81-17.72Q301.25-19.16 303.19-19.99L303.19-19.99L303.19-19.99Q305.12-20.81 307.30-20.81L307.30-20.81L316.44-20.81L316.44-26.37L316.44-26.37Q316.44-27.67 315.95-28.81L315.95-28.81L315.95-28.81Q315.46-29.95 314.61-30.80L314.61-30.80L314.61-30.80Q313.77-31.64 312.63-32.13L312.63-32.13L312.63-32.13Q311.48-32.63 310.18-32.63L310.18-32.63L307.65-32.63L307.65-32.63Q306.35-32.63 305.21-32.13L305.21-32.13L305.21-32.13Q304.07-31.64 303.22-30.80L303.22-30.80L303.22-30.80Q302.38-29.95 301.89-28.81L301.89-28.81L301.89-28.81Q301.39-27.67 301.39-26.37L301.39-26.37L301.39-25.07L297.07-25.77L297.07-26.12L297.07-26.12Q297.07-28.30 297.90-30.23L297.90-30.23L297.90-30.23Q298.72-32.17 300.16-33.61L300.16-33.61L300.16-33.61Q301.61-35.05 303.54-35.88L303.54-35.88L303.54-35.88Q305.47-36.70 307.65-36.70L307.65-36.70L310.18-36.70L310.18-36.70Q312.36-36.70 314.30-35.88L314.30-35.88L314.30-35.88Q316.23-35.05 317.67-33.61L317.67-33.61L317.67-33.61Q319.11-32.17 319.94-30.23L319.94-30.23L319.94-30.23Q320.77-28.30 320.77-26.12L320.77-26.12L320.77 0ZM316.44-9.63L316.44-17.44L307.30-17.44L307.30-17.44Q306-17.44 304.86-16.95L304.86-16.95L304.86-16.95Q303.71-16.45 302.87-15.59L302.87-15.59L302.87-15.59Q302.03-14.73 301.54-13.59L301.54-13.59L301.54-13.59Q301.04-12.45 301.04-11.14L301.04-11.14L301.04-9.63L301.04-9.63Q301.04-8.33 301.54-7.19L301.54-7.19L301.54-7.19Q302.03-6.05 302.87-5.20L302.87-5.20L302.87-5.20Q303.71-4.36 304.86-3.87L304.86-3.87L304.86-3.87Q306-3.38 307.30-3.38L307.30-3.38L310.18-3.38L310.18-3.38Q311.48-3.38 312.63-3.87L312.63-3.87L312.63-3.87Q313.77-4.36 314.61-5.20L314.61-5.20L314.61-5.20Q315.46-6.05 315.95-7.19L315.95-7.19L315.95-7.19Q316.44-8.33 316.44-9.63L316.44-9.63ZM353.46 0L352.02 0L349.63-3.66L349.63-3.66Q348.15-1.65 345.94-0.47L345.94-0.47L345.94-0.47Q343.72 0.70 341.09 0.70L341.09 0.70L340.00 0.70L340.00 0.70Q337.82 0.70 335.88-0.12L335.88-0.12L335.88-0.12Q333.95-0.95 332.51-2.39L332.51-2.39L332.51-2.39Q331.07-3.83 330.24-5.77L330.24-5.77L330.24-5.77Q329.41-7.70 329.41-9.88L329.41-9.88L329.41-26.12L329.41-26.12Q329.41-28.30 330.24-30.23L330.24-30.23L330.24-30.23Q331.07-32.17 332.51-33.61L332.51-33.61L332.51-33.61Q333.95-35.05 335.88-35.88L335.88-35.88L335.88-35.88Q337.82-36.70 340.00-36.70L340.00-36.70L341.09-36.70L341.09-36.70Q343.51-36.70 345.59-35.72L345.59-35.72L345.59-35.72Q347.66-34.73 349.14-32.98L349.14-32.98L349.14-50.41L353.46-50.41L353.46 0ZM349.14-9.63L349.14-26.37L349.14-26.37Q349.14-27.67 348.64-28.81L348.64-28.81L348.64-28.81Q348.15-29.95 347.31-30.80L347.31-30.80L347.31-30.80Q346.46-31.64 345.32-32.13L345.32-32.13L345.32-32.13Q344.18-32.63 342.88-32.63L342.88-32.63L340.00-32.63L340.00-32.63Q338.70-32.63 337.55-32.13L337.55-32.13L337.55-32.13Q336.41-31.64 335.57-30.80L335.57-30.80L335.57-30.80Q334.72-29.95 334.23-28.81L334.23-28.81L334.23-28.81Q333.74-27.67 333.74-26.37L333.74-26.37L333.74-9.63L333.74-9.63Q333.74-8.33 334.23-7.19L334.23-7.19L334.23-7.19Q334.72-6.05 335.57-5.20L335.57-5.20L335.57-5.20Q336.41-4.36 337.55-3.87L337.55-3.87L337.55-3.87Q338.70-3.38 340.00-3.38L340.00-3.38L342.88-3.38L342.88-3.38Q344.18-3.38 345.32-3.87L345.32-3.87L345.32-3.87Q346.46-4.36 347.31-5.20L347.31-5.20L347.31-5.20Q348.15-6.05 348.64-7.19L348.64-7.19L348.64-7.19Q349.14-8.33 349.14-9.63L349.14-9.63ZM384.64 0L380.11 0L380.11-50.41L384.64-50.41L384.64 0ZM420.43-46.09L408.41-46.09L408.41 0L403.88 0L403.88-46.09L391.85-46.09L391.85-50.41L420.43-50.41L420.43-46.09Z"></path></g><g id="" class="logo--name svgSloganText_1 sloganBox" transform="scale(1) translate(320,326.4)" fill="#0ca8e5"><path d=""></path></g></g></g></g></svg>